<?xml version="1.0" encoding="iso-8859-1"?>
<!-- Generator: Adobe Illustrator 25.0.0, SVG Export Plug-In . SVG Version: 6.00 Build 0)  -->
<svg version="1.1" id="Layer_1" xmlns="http://www.w3.org/2000/svg" xmlns:xlink="http://www.w3.org/1999/xlink" x="0px" y="0px"
	 viewBox="0 0 100 100" style="enable-background:new 0 0 100 100;" xml:space="preserve">
<path style="fill:#3A83C1;" d="M77,69.5V83c0,1.76-2.24,4-5,4H59.5v-0.5v-17h17H77z"/>
<polygon style="fill:#40A6DD;" points="77,30.5 77,69.5 76.5,69.5 59.5,69.5 59,69 59,31 59.5,30.55 76,30.55 76.53,30.03 "/>
<polygon style="fill:#E85654;" points="76.53,30.03 76,30.55 59.5,30.55 59.5,13.5 59.75,13.25 "/>
<polygon style="fill:#8CC78C;" points="59.5,86.5 59.5,87 40.5,87 40.5,86.5 40.5,69.5 41,69 59,69 59.5,69.5 "/>
<path style="fill:#EAD032;" d="M59.5,13l0.25,0.25L59.5,13.5v17.05L59,31H41v38l-0.5,0.5h-17H23V19c0-3.76,2.24-6,5-6H59.5z"/>
<path style="fill:#70B570;" d="M40.5,86.5V87H28c-2.76,0-5-2.24-5-4V69.5h0.5h17V86.5z"/>
<path style="fill:#1F212B;" d="M59,70H41c-0.553,0-1-0.448-1-1V31c0-0.552,0.447-1,1-1h18c0.553,0,1,0.448,1,1v38
	C60,69.552,59.553,70,59,70z M42,68h16V32H42V68z"/>
<path style="fill:#1F212B;" d="M72,88H28c-3.323,0-6-2.735-6-5V19c0-4.122,2.468-7,6-7h31.5c0.266,0,0.52,0.105,0.707,0.293
	l17.5,17.5C77.895,29.981,78,30.235,78,30.5V83C78,85.265,75.323,88,72,88z M28,14c-2.393,0-4,2.009-4,5v64c0,1.185,1.792,3,4,3h44
	c2.208,0,4-1.815,4-3V30.914l-0.177-0.178L59.086,14H28z"/>
<path style="fill:#1F212B;" d="M76,31H59.5c-0.276,0-0.5-0.174-0.5-0.45V13.5h1v16.55h16V31z"/>
<path style="fill:#1F212B;" d="M60,86.5h-1v-17c0-0.276,0.224-0.5,0.5-0.5h17v1H60V86.5z"/>
<path style="fill:#1F212B;" d="M41,86.5h-1V70H23.5v-1h17c0.276,0,0.5,0.224,0.5,0.5V86.5z"/>
<path style="fill:#1F212B;" d="M27.5,65c-0.276,0-0.5-0.224-0.5-0.5v-43c0-2.481,2.019-4.5,4.5-4.5h14c0.276,0,0.5,0.224,0.5,0.5
	S45.776,18,45.5,18h-14c-1.93,0-3.5,1.57-3.5,3.5v43C28,64.776,27.776,65,27.5,65z"/>
<path style="fill:#1F212B;" d="M51.5,18h-3c-0.276,0-0.5-0.224-0.5-0.5s0.224-0.5,0.5-0.5h3c0.276,0,0.5,0.224,0.5,0.5
	S51.776,18,51.5,18z"/>
<path style="fill:#1F212B;" d="M55.5,18h-1c-0.276,0-0.5-0.224-0.5-0.5s0.224-0.5,0.5-0.5h1c0.276,0,0.5,0.224,0.5,0.5
	S55.776,18,55.5,18z"/>
<path style="fill:#1F212B;" d="M68.5,83h-5c-0.276,0-0.5-0.224-0.5-0.5s0.224-0.5,0.5-0.5h5c1.93,0,3.5-1.57,3.5-3.5v-1
	c0-0.276,0.224-0.5,0.5-0.5s0.5,0.224,0.5,0.5v1C73,80.981,70.981,83,68.5,83z"/>
<path style="fill:#1F212B;" d="M72.5,75c-0.276,0-0.5-0.224-0.5-0.5v-1c0-0.276,0.224-0.5,0.5-0.5s0.5,0.224,0.5,0.5v1
	C73,74.776,72.776,75,72.5,75z"/>
</svg>